# AST/ASF file generated using VICON BodyLanguage
# -----------------------------------------------
:version 1.10
:name VICON
:units
  mass 1.0
  length 0.45
  angle deg
:documentation
   .ast/.asf automatically generated from VICON data using
   VICON BodyBuilder and BodyLanguage model FoxedUp or BRILLIANT.MOD
:root
   order TX TY TZ RX RY RZ
   axis XYZ
   position 0 0 0  
   orientation 0 -0 0 
:bonedata
  begin
     id 1 
     name lhipjoint
     direction 0.500677 -0.737119 0.453848 
     length 2.34727 
     axis 0 -0 0  XYZ
  end
  begin
     id 2 
     name lfemur
     direction 0.34202 -0.939693 0  
     length 7.53653  
     axis 0 -0 20  XYZ
    dof rx ry rz
    limits (-160.0 20.0)
           (-70.0 70.0)
           (-60.0 70.0)
  end
  begin
     id 3 
     name ltibia
     direction 0.34202 -0.939693 0   
     length 6.85572   
     axis 0 -0 20   XYZ
    dof rx
    limits (-10.0 170.0)
  end
  begin
     id 4 
     name lfoot
     direction 0.155313 -0.426718 0.890949   
     length 2.18324   
     axis -90 -1.13533e-015 20   XYZ
    dof rx rz
    limits (-45.0 90.0)
           (-70.0 20.0)
  end
  begin
     id 5 
     name ltoes
     direction 1.53474e-011 -4.21647e-011 1   
     length 1.06748   
     axis -90 -1.13533e-015 20   XYZ
    dof rx
    limits (-90.0 20.0)
  end
  begin
     id 6 
     name rhipjoint
     direction -0.632471 -0.659587 0.406111   
     length 2.62319  
     axis 0 -0 0  XYZ 
  end
  begin
     id 7 
     name rfemur
     direction -0.34202 -0.939693 0   
     length 7.21735   
     axis 0 -0 -20   XYZ
    dof rx ry rz
    limits (-160.0 20.0)
           (-70.0 70.0)
           (-70.0 60.0)
  end
  begin
     id 8 
     name rtibia
     direction -0.34202 -0.939693 0   
     length 7.02558   
     axis 0 -0 -20   XYZ
    dof rx
    limits (-10.0 170.0)
 end
 begin
     id 9 
     name rfoot
     direction -0.16057 -0.441164 0.882945   
     length 2.10014  
     axis -90 1.13533e-015 -20   XYZ
    dof rx rz
    limits (-45.0 90.0)
           (-20.0 70.0)
  end
  begin
     id 10 
     name rtoes
     direction -1.53553e-011 -4.2192e-011 1   
     length 1.02554   
     axis -90 1.13533e-015 -20   XYZ
    dof rx
    limits (-90.0 20.0)
  end
  begin
     id 11 
     name lowerback
     direction 0.0401429 0.998861 -0.0258085   
     length 1.80848   
     axis 0 -0 0   XYZ
    dof rx ry rz
    limits (-20.0 45.0)
           (-30.0 30.0)
           (-30.0 30.0)
  end
  begin
     id 12 
     name upperback
     direction -0.0130978 0.999914 -0.000352645   
     length 1.8116   
     axis 0 -0 0   XYZ
    dof rx ry rz
    limits (-20.0 45.0)
           (-30.0 30.0)
           (-30.0 30.0)
  end
  begin
     id 13 
     name thorax
     direction -0.0300198 0.999453 0.0138573   
     length 1.81778   
     axis 0 -0 0   XYZ
    dof rx ry rz
    limits (-20.0 45.0)
           (-30.0 30.0)
           (-30.0 30.0)
  end
  begin
     id 14 
     name lowerneck
     direction -0.0401726 0.999191 -0.00173647   
     length 2.10594   
     axis 0 -0 0   XYZ
    dof rx ry rz
    limits (-20.0 45.0)
           (-30.0 30.0)
           (-30.0 30.0)
  end
  begin
     id 15 
     name upperneck
     direction 0.0119835 0.998501 0.0534085   
     length 2.07325   
     axis 0 -0 0   XYZ
    dof rx ry rz
    limits (-20.0 45.0)
           (-30.0 30.0)
           (-30.0 30.0)
  end
  begin
     id 16
     name head
     direction 0.00628309 0.999826 0.0175921  
     length 2.15096  
     axis 0 -0 0   XYZ
    dof rx ry rz
    limits (-20.0 45.0)
           (-30.0 30.0)
           (-30.0 30.0)
  end
  begin
     id 17 
     name lclavicle
     direction 0.895501 0.429681 -0.115981  
     length 4.18092  
     axis 0 -0 0   XYZ
    dof ry rz
    limits (-20.0 10.0)
           (0.0 20.0)
  end
  begin
     id 18 
     name lhumerus
     direction 1 -4.48961e-011 -3.38433e-028   
     length 5.77237   
     axis 180 -30 -90   XYZ
    dof rx ry rz
    limits (-60.0 90.0)
           (-90.0 90.0)
           (-90.0 90.0)
  end
  begin
     id 19
     name lradius
     direction 1 -4.4901e-011 1.11983e-026   
     length 2.91878   
     axis 180 -30 -90   XYZ
    dof rx
    limits (-10.0 170.0)
  end
  begin
     id 20
     name lwrist
     direction 1 -4.48934e-011 1.88176e-026   
     length 1.45939   
     axis -1.23311e-014 90 90   XYZ
    dof ry
    limits (-180.0 0.0)
 end
  begin
     id 21 
     name lhand
     direction 1 -4.4895e-011 3.76352e-026   
     length 1.06566   
     axis -2.40147e-014 90 90   XYZ
    dof rx rz
    limits (-90.0 90.0)
           (-45.0 45.0)
  end
  begin
     id 22 
     name lfingers
     direction 1 -4.49005e-011 7.52705e-026   
     length 0.859162   
     axis -4.80295e-014 90 90   XYZ
    dof rx
    limits (0.0 90.0)
  end
  begin
     id 23
     name lthumb
     direction 0.707107 -6.34885e-011 0.707107   
     length 1.23359   
     axis -90 45 -9.86935e-015   XYZ
    dof rx rz
    limits (-45.0 45.0)
           (-45.0 45.0)
  end
  begin
     id 24 
     name rclavicle
     direction -0.91006 0.40451 -0.0903492   
     length 4.23293  
     axis 0 -0 0   XYZ 
    dof ry rz
    limits (-10.0 20.0)
           (-20.0 0.0)
  end
  begin
     id 25 
     name rhumerus
     direction -1 -4.4897e-011 1.7415e-027  
     length 5.49854   
     axis 180 30 90   XYZ
    dof rx ry rz
    limits (-90.0 60.0)
           (-90.0 90.0)
           (-90.0 90.0)
  end
  begin
     id 26 
     name rradius
     direction -1 -4.48963e-011 1.21259e-026   
     length 3.1186   
     axis 180 30 90   XYZ
    dof rx
    limits (-10.0 170.0)
  end
  begin
     id 27 
     name rwrist
     direction -1 -4.48967e-011 1.88176e-026   
     length 1.5593   
     axis -1.23311e-014 -90 -90   XYZ
    dof ry
    limits (-180.0 0.0)
  end
  begin
     id 28
     name rhand
     direction -1 -4.4895e-011 3.76352e-026   
     length 0.71207   
     axis -2.40147e-014 -90 -90   XYZ
    dof rx rz
    limits (-90.0 90.0)
           (-45.0 45.0)
  end
  begin
     id 29
     name rfingers
     direction -1 -4.49005e-011 7.52705e-026   
     length 0.574089   
     axis -4.80295e-014 -90 -90   XYZ
    dof rx
    limits (0.0 90.0)
  end
  begin
     id 30
     name rthumb
     direction -0.707107 -6.34982e-011 0.707107   
     length 0.824281   
     axis -90 -45 9.86935e-015   XYZ
    dof rx rz
    limits (-45.0 45.0)
           (-45.0 45.0)
  end
:hierarchy
  begin
    root lhipjoint rhipjoint lowerback
    lhipjoint lfemur
    lfemur ltibia
    ltibia lfoot
    lfoot ltoes
    rhipjoint rfemur
    rfemur rtibia
    rtibia rfoot
    rfoot rtoes
    lowerback upperback
    upperback thorax
    thorax lowerneck lclavicle rclavicle
    lowerneck upperneck
    upperneck head
    lclavicle lhumerus
    lhumerus lradius
    lradius lwrist
    lwrist lhand lthumb
    lhand lfingers
    rclavicle rhumerus
    rhumerus rradius
    rradius rwrist
    rwrist rhand rthumb
    rhand rfingers
  end

#!OML:ASF C:\ViconDB\ViconDB\414\Spring2016\042216\male.ASF
:FULLY-SPECIFIED
:DEGREES
350
root 14.6131 17.3178 10.5886 -169.552 84.0932 -169.078
lowerback 0.0590621 -3.02662 5.11158
upperback -0.738379 -3.9978 0.240635
thorax -1.1256 -2.03446 -2.55549
lowerneck -2.58714 3.23564 -4.28183
upperneck 1.10301 4.43756 1.29147
head 0.644607 2.21404 1.16559
rclavicle -2.6134e-014 5.1684e-015
rhumerus -35.8238 -13.3872 -83.8743
rradius 24.9924
rwrist 33.7009
rhand 12.3403 -19.6156
rfingers 7.12502
rthumb 37.3425 -45.5907
lclavicle -2.6134e-014 5.1684e-015
lhumerus -33.1355 9.06701 87.5337
lradius 35.4099
lwrist -14.8551
lhand -4.53658 11.0752
lfingers 7.12502
lthumb 21.2386 39.9316
rfemur -19.9945 -4.80624 24.5737
rtibia 27.9599
rfoot -9.98156 -0.0838107
rtoes -12.0756
lfemur 2.10892 -1.71272 -17.7323
ltibia 48.0885
lfoot -3.32482 1.81667
ltoes -20.672
351
root 14.7876 17.3447 10.5958 -168.392 83.7449 -167.785
lowerback 0.396927 -3.07517 5.29365
upperback -0.855641 -4.03303 0.369273
thorax -1.44245 -2.06138 -2.49928
lowerneck -2.19983 3.31705 -4.19981
upperneck 1.08979 4.52908 1.11924
head 0.577833 2.25808 1.08909
rclavicle 4.77207e-014 -1.11319e-014
rhumerus -35.3908 -12.6161 -84.1933
rradius 25.0181
rwrist 33.2466
rhand 12.1239 -19.6141
rfingers 7.12502
rthumb 37.1379 -45.6428
lclavicle 4.77207e-014 -1.11319e-014
lhumerus -33.7268 9.30053 87.5625
lradius 35.1304
lwrist -14.9296
lhand -4.52833 11.0651
lfingers 7.12502
lthumb 21.2465 39.9207
rfemur -18.7917 -5.50572 24.8754
rtibia 27.3079
rfoot -10.405 0.180264
rtoes -12.2708
lfemur 0.23042 -1.95951 -17.4058
ltibia 51.2186
lfoot -3.4757 2.55489
ltoes -16.9022
352
root 14.9694 17.3744 10.6081 -167.069 83.5044 -166.309
lowerback 0.484279 -3.06654 5.52693
upperback -0.773336 -4.01573 0.37726
thorax -1.42107 -2.05266 -2.61859
lowerneck -2.10107 3.41976 -3.87541
upperneck 1.11007 4.65576 0.921527
head 0.575123 2.32055 0.971468
rclavicle 3.16937e-014 -9.74045e-015
rhumerus -34.7819 -12.695 -84.4096
rradius 25.0702
rwrist 33.8286
rhand 11.9735 -19.459
rfingers 7.12502
rthumb 36.9957 -45.5246
lclavicle 3.16937e-014 -9.74045e-015
lhumerus -33.9906 9.74719 87.2478
lradius 34.6714
lwrist -15.5509
lhand -4.41124 10.8419
lfingers 7.12502
lthumb 21.359 39.6848
rfemur -17.5668 -5.85373 25.1515
rtibia 26.6834
rfoot -10.7625 0.274311
rtoes -12.2024
lfemur -1.55928 -2.03885 -17.0352
ltibia 53.9876
lfoot -4.78664 4.04521
ltoes -18.0224
353
root 15.1443 17.3971 10.621 -165.283 83.3313 -164.389
lowerback 0.574466 -3.04293 5.76729
upperback -0.657176 -3.97748 0.45551
thorax -1.35972 -2.03078 -2.67151
lowerneck -2.07899 3.53877 -3.73577
upperneck 1.04358 4.81167 0.783977
head 0.553165 2.39864 0.904704
rclavicle 1.04176e-014 -6.36111e-015
rhumerus -33.9696 -12.0582 -84.8363
rradius 25.1423
rwrist 33.7995
rhand 12.0685 -19.4758
rfingers 7.12502
rthumb 37.0855 -45.5181
lclavicle 1.04176e-014 -6.36111e-015
lhumerus -34.1767 9.93201 87.2085
lradius 34.3377
lwrist -15.448
lhand -4.48095 11.0036
lfingers 7.12502
lthumb 21.2921 39.854
rfemur -16.4977 -6.78843 25.5301
rtibia 26.1045
rfoot -11.1113 1.04099
rtoes -11.9624
lfemur -3.3773 -1.97489 -16.5712
ltibia 56.431
lfoot -6.53376 5.37493
ltoes -20.7593
354
root 15.3235 17.4165 10.6397 -165.059 83.2359 -163.994
lowerback 0.635198 -3.02502 5.70104
upperback -0.523012 -3.95529 0.467519
thorax -1.24788 -2.01367 -2.62455
lowerneck -2.13435 3.59797 -3.69387
upperneck 1.10061 4.88991 0.884653
head 0.576816 2.43805 0.931763
rclavicle 3.67193e-014 -1.53064e-014
rhumerus -33.1372 -10.9976 -85.5333
rradius 25.1156
rwrist 33.231
rhand 11.7397 -19.6881
rfingers 7.12502
rthumb 36.7745 -45.8105
lclavicle 3.67193e-014 -1.53064e-014
lhumerus -34.3805 9.71349 87.3233
lradius 33.974
lwrist -13.9566
lhand -5.54795 11.3919
lfingers 7.12502
lthumb 20.2669 40.3545
rfemur -15.3625 -7.32703 25.6774
rtibia 25.5721
rfoot -11.4824 1.43299
rtoes -11.7243
lfemur -5.04729 -1.92276 -16.3354
ltibia 58.5021
lfoot -8.10133 6.5744
ltoes -21.5754
355
root 15.4946 17.4351 10.6493 -165.313 83.4137 -164.222
lowerback 0.651 -2.85963 5.79345
upperback -0.406526 -3.73858 0.396936
thorax -1.12815 -1.90145 -2.75804
lowerneck -2.28446 3.6882 -3.64337
upperneck 1.17662 5.01609 0.828515
head 0.624959 2.50016 0.91183
rclavicle 8.86455e-015 -1.03368e-014
rhumerus -32.3139 -10.9975 -85.7519
rradius 25.3257
rwrist 33.1969
rhand 12.1707 -19.8414
rfingers 7.12502
rthumb 37.1822 -45.8586
lclavicle 8.86455e-015 -1.03368e-014
lhumerus -34.5084 10.3054 87.0926
lradius 33.5474
lwrist -14.6069
lhand -5.43269 11.4267
lfingers 7.12502
lthumb 20.3776 40.3775
rfemur -14.4476 -7.23527 25.6433
rtibia 25.107
rfoot -11.7703 1.47486
rtoes -11.8895
lfemur -6.90101 -1.59848 -16.3429
ltibia 60.2449
lfoot -9.00091 7.49609
ltoes -20.8676
356
root 15.6642 17.4521 10.6584 -164.808 83.5172 -163.727
lowerback 0.624228 -2.7264 5.97972
upperback -0.275717 -3.56614 0.36512
thorax -0.976046 -1.80983 -2.90487
lowerneck -2.42788 3.84014 -3.78323
upperneck 1.13505 5.22588 0.972844
head 0.624399 2.6064 0.984571
rclavicle 3.85145e-014 -3.18055e-015
rhumerus -31.5214 -10.8404 -85.9782
rradius 25.4832
rwrist 34.0368
rhand 11.6091 -19.6399
rfingers 7.12502
rthumb 36.6509 -45.7938
lclavicle 3.85145e-014 -3.18055e-015
lhumerus -34.6237 10.7282 86.9135
lradius 33.2048
lwrist -14.9624
lhand -5.55653 11.3666
lfingers 7.12502
lthumb 20.2586 40.3301
rfemur -13.6244 -7.2532 25.7199
rtibia 24.7162
rfoot -12.1466 1.54703
rtoes -11.5364
lfemur -8.79588 -1.43844 -16.1943
ltibia 61.6721
lfoot -9.67359 8.0869
ltoes -18.4031
357
root 15.8352 17.4657 10.6754 -164.755 83.7155 -163.598
lowerback 0.729176 -2.64372 5.85681
upperback -0.254138 -3.45218 0.307686
thorax -0.997949 -1.7531 -2.8942
lowerneck -2.27985 4.04227 -3.51632
upperneck 1.21748 5.48269 0.891844
head 0.627516 2.73397 0.914355
rclavicle 2.34877e-014 -1.13307e-014
rhumerus -30.8812 -10.1434 -86.5514
rradius 25.6257
rwrist 33.6448
rhand 11.5388 -19.8144
rfingers 7.12502
rthumb 36.5844 -45.9852
lclavicle 2.34877e-014 -1.13307e-014
lhumerus -35.0493 11.2855 86.4258
lradius 32.854
lwrist -15.45
lhand -5.37172 11.687
lfingers 7.12502
lthumb 20.4362 40.6316
rfemur -12.6955 -6.88973 25.7259
rtibia 24.345
rfoot -12.5186 1.36373
rtoes -11.6561
lfemur -10.5476 -1.16661 -16.1318
ltibia 62.7311
lfoot -10.3074 8.63847
ltoes -16.9107
358
root 15.9922 17.4741 10.6844 -163.828 83.9517 -162.779
lowerback 0.809658 -2.53433 5.94473
upperback -0.235027 -3.30145 0.253747
thorax -1.01744 -1.67888 -2.99954
lowerneck -2.42256 4.29428 -3.19472
upperneck 1.3272 5.81739 0.719648
head 0.691159 2.89998 0.81667
rclavicle 2.45313e-014 -3.37934e-015
rhumerus -30.0525 -9.86424 -86.9463
rradius 25.9326
rwrist 33.6214
rhand 11.6025 -19.7729
rfingers 7.12502
rthumb 36.6446 -45.9284
lclavicle 2.45313e-014 -3.37934e-015
lhumerus -35.3296 11.8196 85.9971
lradius 32.5769
lwrist -15.9252
lhand -5.26174 11.5343
lfingers 7.12502
lthumb 20.5419 40.4675
rfemur -12.0269 -6.02897 25.8254
rtibia 23.9655
rfoot -12.6873 0.727888
rtoes -11.2166
lfemur -12.531 -0.782789 -16.0347
ltibia 63.5023
lfoot -10.9477 9.30859
ltoes -15.7098
359
root 16.1633 17.4764 10.6954 -160.748 84.2825 -159.664
lowerback 0.885129 -2.38672 6.11201
upperback -0.177217 -3.0982 0.298407
thorax -0.987061 -1.57555 -3.05082
lowerneck -2.50934 4.59066 -3.04662
upperneck 1.49406 6.21362 0.61648
head 0.756769 3.09608 0.770074
rclavicle 1.77353e-014 -1.33186e-014
rhumerus -29.3403 -9.59753 -87.25
rradius 26.2047
rwrist 33.5751
rhand 11.5891 -19.6257
rfingers 7.12502
rthumb 36.6319 -45.7844
lclavicle 1.77353e-014 -1.33186e-014
lhumerus -35.6978 12.4545 85.6196
lradius 32.3242
lwrist -16.1926
lhand -5.42602 11.1543
lfingers 7.12502
lthumb 20.384 40.1044
rfemur -11.1255 -4.74415 26.1161
rtibia 23.5941
rfoot -13.0153 -0.212491
rtoes -10.8825
lfemur -14.0623 -0.318698 -15.7862
ltibia 63.8944
lfoot -11.9523 9.79875
ltoes -15.8776
